#N canvas 704 -1475 2520 1439 12;
#X obj 170 368 hsl 162 19 0 9 0 0 empty empty SIZE -2 -10 0 12 #ff0400 #000000 #000000 0 1;
#X obj 166 420 hsl 162 19 0 9 0 0 empty empty SPEED -2 -10 0 12 #00ff04 #000000 #000000 0 1;
#X obj 170 470 hsl 162 19 0 9 0 0 empty empty SHAPE -2 -10 0 12 #faff00 #000000 #000000 0 1;
#X obj 173 526 hsl 162 19 1 9 0 0 empty empty MULTIPLY -2 -10 0 12 #00faff #000000 #000000 0 1;
#X obj 162 309 tgl 19 0 empty empty empty 0 -10 0 12 #fcfcfc #000000 #000000 0 1;
#X obj 396 386 int;
#X obj 396 422 int;
#X obj 404 472 int;
#X obj 400 531 int;
#X msg 647 491 10;
#X obj 417 268 tgl 19 0 empty empty empty 0 -10 0 12 #fcfcfc #000000 #000000 0 1;
#X obj 420 306 metro 33;
#X msg 575 519 close;
#X msg 19 92 devices;
#X obj 304 44 hradio 19 1 0 6 empty empty MODE 0 -10 0 12 #fcfcfc #000000 #000000 0;
#X obj 749 544 print RAW_OUT;
#X msg 550 47 symbol A;
#X msg 551 134 symbol C;
#X msg 552 177 symbol D;
#X msg 552 220 symbol E;
#X obj 306 78 sel 0 1 2 3 4;
#X obj 470 351 symbol;
#X msg 737 489 print \$1\$2\$3\$4\$5\$6;
#X obj 671 427 t b l;
#X obj 507 385 pack s 0 6 0 3 0 1;
#X msg 576 544 open 9;
#X obj 694 591 comport 9 115200;
#X obj 793 127 print MIDI_KNOB;
#X obj 89 323 ctlin 0;
#X obj 91 377 ctlin 1;
#X obj 88 431 ctlin 2;
#X obj 105 483 ctlin 3;
#X obj 89 346 / 14.11;
#X obj 93 398 / 14.11;
#X obj 89 452 / 14.11;
#X obj 104 506 / 14.11;
#X obj 816 65 ctlin;
#X obj 550 25 ctlin 43;
#X obj 551 70 ctlin 44;
#X obj 551 113 ctlin 42;
#X obj 552 156 ctlin 41;
#X obj 552 199 ctlin 45;
#X obj 113 216 ctlin 32;
#X obj 152 262 / 127;
#X msg 551 93 symbol BTI_DIRO';
#X connect 0 0 5 0;
#X connect 1 0 6 0;
#X connect 2 0 7 0;
#X connect 3 0 8 0;
#X connect 4 0 24 1;
#X connect 5 0 24 2;
#X connect 6 0 24 3;
#X connect 7 0 24 4;
#X connect 8 0 24 5;
#X connect 9 0 26 0;
#X connect 10 0 11 0;
#X connect 11 0 21 0;
#X connect 12 0 26 0;
#X connect 14 0 20 0;
#X connect 16 0 21 1;
#X connect 17 0 21 1;
#X connect 18 0 21 1;
#X connect 19 0 21 1;
#X connect 20 0 16 0;
#X connect 20 1 44 0;
#X connect 20 2 17 0;
#X connect 20 3 18 0;
#X connect 20 4 19 0;
#X connect 21 0 24 0;
#X connect 22 0 15 0;
#X connect 22 0 26 0;
#X connect 23 0 9 0;
#X connect 23 1 22 0;
#X connect 24 0 23 0;
#X connect 25 0 26 0;
#X connect 28 0 32 0;
#X connect 29 0 33 0;
#X connect 30 0 34 0;
#X connect 31 0 35 0;
#X connect 32 0 0 0;
#X connect 33 0 1 0;
#X connect 34 0 2 0;
#X connect 35 0 3 0;
#X connect 36 1 27 0;
#X connect 37 0 16 0;
#X connect 38 0 44 0;
#X connect 39 0 17 0;
#X connect 40 0 18 0;
#X connect 41 0 19 0;
#X connect 42 0 43 0;
#X connect 43 0 4 0;
#X connect 44 0 21 1;
#X coords 0 0 0.5 0.5 0 0 0;
